<?xml version="1.0" standalone="no"?>
<!DOCTYPE svg PUBLIC "-//W3C//DTD SVG 20010904//EN"
 "http://www.w3.org/TR/2001/REC-SVG-20010904/DTD/svg10.dtd">
<svg version="1.0" xmlns="http://www.w3.org/2000/svg"
 width="274.000000pt" height="274.000000pt" viewBox="0 0 274.000000 274.000000"
 preserveAspectRatio="xMidYMid meet">
<metadata>
Created by potrace 1.14, written by Peter Selinger 2001-2017
</metadata>
<g transform="translate(0.000000,274.000000) scale(0.100000,-0.100000)"
fill="#000000" stroke="none">
<path d="M760 1450 l0 -175 -20 32 c-10 18 -38 45 -61 60 -37 25 -52 28 -118
28 -82 0 -128 -18 -166 -61 -11 -13 -23 -24 -26 -24 -3 0 -5 63 -5 141 1 77
-3 143 -8 146 -8 5 -63 7 -106 4 -13 -1 -15 -31 -15 -206 0 -171 -3 -207 -16
-220 -25 -26 -64 -27 -93 -4 l-26 21 -21 -49 c-14 -32 -18 -53 -11 -63 17 -28
66 -45 132 -45 74 0 118 24 146 76 l15 30 22 -32 c28 -42 83 -70 150 -76 93
-9 167 24 208 91 l19 31 0 -57 0 -58 60 0 c55 0 60 2 60 23 1 19 2 20 13 7 18
-23 63 -40 105 -40 51 0 101 27 138 76 l31 42 -3 -54 -3 -54 65 0 64 0 1 38
c0 20 0 71 -1 112 l-1 76 90 0 c56 0 91 -4 92 -11 1 -5 1 -56 2 -112 l1 -103
63 0 c35 0 63 3 63 8 3 182 1 543 -3 549 -4 7 -58 9 -113 4 -8 -1 -11 -35 -11
-108 l1 -108 -39 -5 c-22 -3 -64 -3 -93 -2 l-53 4 2 105 c1 57 -1 106 -4 109
-3 3 -25 6 -49 6 -82 1 -75 15 -74 -153 1 -83 -2 -153 -6 -156 -5 -2 -8 2 -8
9 0 19 -59 75 -93 87 -43 16 -98 13 -139 -8 l-37 -18 0 106 c1 179 8 160 -61
158 l-60 -2 0 -175z m-165 -159 c16 -1 45 -56 45 -83 -1 -51 -62 -88 -112 -67
-84 35 -52 169 37 154 11 -2 25 -4 30 -4z m427 -24 c23 -26 23 -75 0 -105 -45
-58 -141 -22 -141 53 0 75 92 109 141 52z"/>
<path d="M2005 1622 c-3 -3 -5 -135 -5 -294 l0 -288 60 0 c47 0 60 3 60 15 0
19 3 19 42 -5 66 -40 155 -18 212 53 55 69 43 190 -26 254 -49 46 -128 56
-191 24 l-38 -19 1 101 c1 56 1 116 1 134 l-1 32 -55 -1 c-30 -1 -57 -4 -60
-6z m228 -331 c19 -2 47 -44 47 -70 0 -43 -9 -60 -42 -77 -24 -12 -36 -13 -64
-4 -38 13 -54 35 -54 77 1 46 44 86 85 78 11 -2 23 -4 28 -4z"/>
<path d="M1612 1256 c3 -118 6 -138 24 -163 34 -46 69 -58 171 -58 77 0 96 3
120 21 52 38 63 76 63 212 l0 122 -60 0 -60 0 0 -102 c0 -113 -12 -151 -49
-156 -72 -11 -91 24 -89 163 l1 90 -62 3 -63 3 4 -135z"/>
<path d="M2582 1183 c-28 -5 -54 -44 -54 -80 0 -33 43 -73 78 -73 50 0 87 63
68 115 -5 13 -57 48 -66 44 -2 -1 -13 -4 -26 -6z"/>
</g>
</svg>
